<?xml version="1.0" encoding="UTF-8"?>
<svg xmlns="http://www.w3.org/2000/svg" xmlns:xlink="http://www.w3.org/1999/xlink" width="14pt" height="16pt" viewBox="0 0 14 16" version="1.1">
<g id="surface1">
<path style=" stroke:none;fill-rule:nonzero;fill:rgb(0%,0%,0%);fill-opacity:1;" d="M 14 2.5 L 14 13.5 C 14 14.328125 13.328125 15 12.5 15 L 4.824219 15 C 5.132812 14.488281 5.523438 13.75 5.679688 13.148438 C 5.773438 12.789062 6.160156 11.320312 6.160156 11.320312 C 6.410156 11.800781 7.140625 12.203125 7.917969 12.203125 C 10.234375 12.203125 11.898438 10.074219 11.898438 7.429688 C 11.898438 4.898438 9.832031 3 7.167969 3 C 3.855469 3 2.101562 5.222656 2.101562 7.644531 C 2.101562 8.769531 2.699219 10.167969 3.65625 10.617188 C 3.804688 10.683594 3.878906 10.652344 3.914062 10.511719 C 3.9375 10.40625 4.070312 9.882812 4.125 9.644531 C 4.144531 9.566406 4.132812 9.5 4.070312 9.425781 C 3.757812 9.039062 3.5 8.335938 3.5 7.675781 C 3.5 5.980469 4.78125 4.34375 6.964844 4.34375 C 8.851562 4.34375 10.171875 5.628906 10.171875 7.464844 C 10.171875 9.539062 9.125 10.976562 7.757812 10.976562 C 7.007812 10.976562 6.445312 10.355469 6.621094 9.589844 C 6.835938 8.679688 7.257812 7.695312 7.257812 7.035156 C 7.257812 5.378906 4.898438 5.605469 4.898438 7.816406 C 4.898438 8.492188 5.125 8.957031 5.125 8.957031 C 4.144531 13.105469 3.996094 13.160156 4.199219 14.976562 L 4.269531 15 L 1.5 15 C 0.671875 15 0 14.328125 0 13.5 L 0 2.5 C 0 1.671875 0.671875 1 1.5 1 L 12.5 1 C 13.328125 1 14 1.671875 14 2.5 Z M 14 2.5 "/>
</g>
</svg>
